<svg xmlns="http://www.w3.org/2000/svg" width="48" height="48" viewBox="150 90 220 230">
  <path d="M 0 0 L 512 0 L 512 512 L 0 512 Z" fill="transparent"></path>
  <path d="M194.58 99.37 C197.72 91.94 209.88 91.34 213.56 98.58 C215.54 103.17 214.38 108.39 214.6 113.24 C241.97 113.15 269.33 113.13 296.69 113.24 C296.92 108.34 296.24 103.28 297.63 98.51 C300.78 92.11 310.49 92.11 315.34 96.5 C319.29 101.05 317.22 107.64 317.78 113.12 C326.44 113.44 335.62 111.61 343.86 114.97 C349.19 117.7 354.44 122.08 355.68 128.23 C356.93 134.75 356.53 141.42 356.68 148.01 C356.66 184.35 356.93 220.69 356.67 257.03 C356.48 263.61 357.26 270.3 355.88 276.79 C354.2 284.61 347.5 290.94 339.69 292.44 C336.49 292.99 333.23 293.07 330 293.11 C308.47 293.17 286.94 293.1 265.42 293.31 C265.34 297.7 265.71 302.13 265.1 306.5 C264.48 310.26 260.8 312.95 257.05 312.73 C253.33 313.15 248.62 311.9 247.37 307.93 C246.18 303.13 246.78 298.13 246.7 293.24 C224.12 293.12 201.54 293.13 178.96 293.2 C173.67 293.23 168.11 292.45 163.72 289.28 C158.09 285.54 155.36 278.63 155.51 272.03 C155.52 252.33 155.2 232.62 154.89 212.93 C155.41 186.61 154.97 160.29 155.19 133.98 C154.77 124.94 161.61 116.73 169.94 113.99 C177.72 112.18 185.79 113.28 193.7 113.06 C193.89 108.51 193.11 103.77 194.58 99.37 Z M171 164.1 C168.83 166.1 168.86 169.29 168.68 172 C168.19 203.33 168.6 234.67 168.78 265.99 C168.97 269.6 168.58 273.89 171.49 276.59 C174.47 279.65 179.08 279.3 183 279.4 C204.43 279.24 225.86 279.41 247.29 279.13 C246.96 273.08 247.61 267 246.96 260.97 C246.59 256.87 243.26 253.97 240.17 251.69 C234.41 247.74 227.76 244.12 224.7 237.48 C219.99 227.57 222.36 216.42 223.37 206 C224.81 196.36 224.25 186.58 224.95 176.9 C225.85 172.36 231.81 174.36 234.63 175.9 C235.81 189.62 234.65 203.4 235.28 217.12 C235.05 219.39 237.13 220.48 238.65 221.68 C239.41 221.32 240.93 220.61 241.69 220.25 C243.45 211.28 242.47 202.06 242.77 192.98 C243.06 187.11 242.08 181.05 243.48 175.31 C245.78 173.41 250.03 173.57 251.74 176.23 C252.7 178.69 252.44 181.41 252.52 183.99 C252.33 194.35 252.25 204.7 252.31 215.06 C252.4 216.91 252.32 218.93 253.41 220.54 C255.01 220.98 256.75 221.04 258.32 220.42 C259.61 218.94 259.59 216.89 259.67 215.04 C259.79 201.92 259.38 188.79 259.51 175.66 C260.98 174.99 262.45 174.29 264 173.81 C265.77 173.91 267.3 174.93 268.9 175.6 C269.09 187.73 269.07 199.86 269.08 211.99 C269.15 214.4 268.99 216.88 269.69 219.23 C270.6 221.46 273.6 220.82 275.45 220.33 C277.32 218.9 276.69 216.1 277.04 214.05 C277.09 201.24 277.17 188.43 277.12 175.63 C280.02 173.84 283.4 174.1 286.64 174.53 C287.62 184.01 287.12 193.57 288.22 203.04 C288.97 211.96 291.2 220.96 289.49 229.9 C288.54 235.74 285.5 241.18 281.08 245.11 C276.77 249.31 270.83 251.41 266.8 255.91 C264.95 257.77 264.81 260.53 264.73 263 C264.61 268.44 264.79 273.88 264.79 279.33 C285.52 279.24 306.25 279.31 326.99 279.34 C330.74 279.22 334.74 279.97 338.3 278.41 C341.38 276.86 342.52 273.27 342.55 270.04 C342.59 236.34 343.2 202.63 342.6 168.94 C342.6 164.56 338.24 161.15 333.99 161.6 C282.31 161.64 230.62 161.66 178.94 161.67 C176.16 161.75 173.06 162.01 171 164.1 Z M194.62 141.43 C198.73 146.97 207.98 147.99 212.69 142.61 C216.03 139.99 215.78 135.57 215.12 131.82 C212.65 136.43 209.12 142.27 203.01 141.54 C197.4 141.27 194.96 135.58 193.88 130.88 C193.4 134.35 192.35 138.35 194.62 141.43 Z M307.02 141.46 C301.6 141.27 298.49 136.35 297.23 131.63 C296.87 133.92 296.19 136.25 296.55 138.59 C297.19 141.19 299.17 143.24 301.4 144.61 C306.19 147.87 313.1 145.86 316.59 141.58 C319.41 138.37 318.83 133.78 319.18 129.84 C317.34 135.21 313.86 142.39 307.02 141.46 Z" fill="#33ccbf"/>
</svg>
