<svg xmlns="http://www.w3.org/2000/svg" height="512pt" version="1.1" viewBox="0 0 512 512" width="512pt">
<path d="M 0.00 0.00 L 512.00 0.00 L 512.00 512.00 L 0.00 512.00 L 0.00 0.00 Z" fill="transparent" opacity="1.00" stroke="transparent" stroke-width="0.25" data-index="0" style="opacity: 1; visibility: visible; fill: transparent;"></path>
<path d="M 194.58 99.37 C 197.72 91.94 209.88 91.34 213.56 98.58 C 215.54 103.17 214.38 108.39 214.60 113.24 C 241.97 113.15 269.33 113.13 296.69 113.24 C 296.92 108.34 296.24 103.28 297.63 98.51 C 300.78 92.11 310.49 92.11 315.34 96.50 C 319.29 101.05 317.22 107.64 317.78 113.12 C 326.44 113.44 335.62 111.61 343.86 114.97 C 349.19 117.70 354.44 122.08 355.68 128.23 C 356.93 134.75 356.53 141.42 356.68 148.01 C 356.66 184.35 356.93 220.69 356.67 257.03 C 356.48 263.61 357.26 270.30 355.88 276.79 C 354.20 284.61 347.50 290.94 339.69 292.44 C 336.49 292.99 333.23 293.07 330.00 293.11 C 308.47 293.17 286.94 293.10 265.42 293.31 C 265.34 297.70 265.71 302.13 265.10 306.50 C 264.48 310.26 260.80 312.95 257.05 312.73 C 253.33 313.15 248.62 311.90 247.37 307.93 C 246.18 303.13 246.78 298.13 246.70 293.24 C 224.12 293.12 201.54 293.13 178.96 293.20 C 173.67 293.23 168.11 292.45 163.72 289.28 C 158.09 285.54 155.36 278.63 155.51 272.03 C 155.52 252.33 155.20 232.62 154.89 212.93 C 155.41 186.61 154.97 160.29 155.19 133.98 C 154.77 124.94 161.61 116.73 169.94 113.99 C 177.72 112.18 185.79 113.28 193.70 113.06 C 193.89 108.51 193.11 103.77 194.58 99.37 Z M 171.00 164.10 C 168.83 166.10 168.86 169.29 168.68 172.00 C 168.19 203.33 168.60 234.67 168.78 265.99 C 168.97 269.60 168.58 273.89 171.49 276.59 C 174.47 279.65 179.08 279.30 183.00 279.40 C 204.43 279.24 225.86 279.41 247.29 279.13 C 246.96 273.08 247.61 267.00 246.96 260.97 C 246.59 256.87 243.26 253.97 240.17 251.69 C 234.41 247.74 227.76 244.12 224.70 237.48 C 219.99 227.57 222.36 216.42 223.37 206.00 C 224.81 196.36 224.25 186.58 224.95 176.90 C 225.85 172.36 231.81 174.36 234.63 175.90 C 235.81 189.62 234.65 203.40 235.28 217.12 C 235.05 219.39 237.13 220.48 238.65 221.68 C 239.41 221.32 240.93 220.61 241.69 220.25 C 243.45 211.28 242.47 202.06 242.77 192.98 C 243.06 187.11 242.08 181.05 243.48 175.31 C 245.78 173.41 250.03 173.57 251.74 176.23 C 252.70 178.69 252.44 181.41 252.52 183.99 C 252.33 194.35 252.25 204.70 252.31 215.06 C 252.40 216.91 252.32 218.93 253.41 220.54 C 255.01 220.98 256.75 221.04 258.32 220.42 C 259.61 218.94 259.59 216.89 259.67 215.04 C 259.79 201.92 259.38 188.79 259.51 175.66 C 260.98 174.99 262.45 174.29 264.00 173.81 C 265.77 173.91 267.30 174.93 268.90 175.60 C 269.09 187.73 269.07 199.86 269.08 211.99 C 269.15 214.40 268.99 216.88 269.69 219.23 C 270.60 221.46 273.60 220.82 275.45 220.33 C 277.32 218.90 276.69 216.10 277.04 214.05 C 277.09 201.24 277.17 188.43 277.12 175.63 C 280.02 173.84 283.40 174.10 286.64 174.53 C 287.62 184.01 287.12 193.57 288.22 203.04 C 288.97 211.96 291.20 220.96 289.49 229.90 C 288.54 235.74 285.50 241.18 281.08 245.11 C 276.77 249.31 270.83 251.41 266.80 255.91 C 264.95 257.77 264.81 260.53 264.73 263.00 C 264.61 268.44 264.79 273.88 264.79 279.33 C 285.52 279.24 306.25 279.31 326.99 279.34 C 330.74 279.22 334.74 279.97 338.30 278.41 C 341.38 276.86 342.52 273.27 342.55 270.04 C 342.59 236.34 343.20 202.63 342.60 168.94 C 342.60 164.56 338.24 161.15 333.99 161.60 C 282.31 161.64 230.62 161.66 178.94 161.67 C 176.16 161.75 173.06 162.01 171.00 164.10 Z M 194.62 141.43 C 198.73 146.97 207.98 147.99 212.69 142.61 C 216.03 139.99 215.78 135.57 215.12 131.82 C 212.65 136.43 209.12 142.27 203.01 141.54 C 197.40 141.27 194.96 135.58 193.88 130.88 C 193.40 134.35 192.35 138.35 194.62 141.43 Z M 307.02 141.46 C 301.60 141.27 298.49 136.35 297.23 131.63 C 296.87 133.92 296.19 136.25 296.55 138.59 C 297.19 141.19 299.17 143.24 301.40 144.61 C 306.19 147.87 313.10 145.86 316.59 141.58 C 319.41 138.37 318.83 133.78 319.18 129.84 C 317.34 135.21 313.86 142.39 307.02 141.46 Z" fill="#9372f1" fill-rule="evenodd" opacity="1.00" stroke="#9372f1" stroke-width="0.25" data-index="1" style="opacity: 1;"></path>
<path d="M 111.57 321.89 C 125.05 321.78 138.54 321.92 152.02 321.77 C 153.40 321.91 155.31 321.35 155.99 322.99 C 156.86 327.18 156.34 331.50 155.83 335.70 C 146.19 336.15 136.53 335.61 126.88 335.92 C 126.89 341.23 126.85 346.55 126.84 351.86 C 135.38 352.07 143.98 351.39 152.49 352.17 C 153.13 356.62 152.84 361.12 152.63 365.59 C 143.95 365.69 135.28 365.74 126.61 365.69 C 126.38 374.29 126.70 382.90 126.38 391.51 C 121.47 392.07 116.52 392.14 111.58 391.82 C 111.08 388.90 110.76 385.94 110.80 382.97 C 110.95 368.98 110.84 354.99 110.85 341.01 C 110.92 334.63 110.18 328.18 111.57 321.89 Z" fill="#9372f1" opacity="1.00" stroke="#9372f1" stroke-width="0.25" data-index="2" style="opacity: 1;"></path>
<path d="M 259.55 321.73 C 264.48 321.40 269.42 321.40 274.36 321.72 C 274.75 333.73 274.08 345.77 274.72 357.78 C 279.60 353.26 283.71 348.01 288.35 343.26 C 289.61 342.04 290.97 340.56 292.89 340.65 C 297.36 340.34 301.85 340.57 306.33 340.50 C 306.65 341.16 307.29 342.49 307.61 343.16 C 302.45 348.80 297.15 354.32 292.08 360.04 C 291.19 361.36 289.22 362.82 290.48 364.53 C 295.67 374.01 304.73 381.20 308.33 391.57 C 303.25 391.97 298.08 392.54 293.02 391.69 C 291.42 390.75 290.54 389.00 289.48 387.56 C 286.13 382.18 282.58 376.95 279.08 371.68 C 277.51 373.18 275.91 374.65 274.29 376.10 C 274.29 380.75 274.63 385.42 274.22 390.07 C 274.50 391.94 272.21 391.86 271.02 392.08 C 267.32 392.21 263.31 392.66 259.87 391.02 C 259.45 388.70 259.50 386.34 259.52 384.00 C 259.81 363.25 259.24 342.49 259.55 321.73 Z" fill="#9372f1" opacity="1.00" stroke="#9372f1" stroke-width="0.25" data-index="3"></path>
<path d="M 181.44 339.73 C 189.25 338.40 197.77 339.92 203.91 345.15 C 216.47 355.76 215.90 377.92 203.01 388.05 C 196.94 393.05 188.57 394.36 180.97 393.12 C 172.47 391.83 165.31 385.21 162.56 377.19 C 159.63 368.64 159.95 358.66 164.86 350.89 C 168.41 344.97 174.66 340.88 181.44 339.73 Z M 183.24 352.26 C 179.35 353.53 176.44 357.06 175.62 361.04 C 174.50 365.90 174.70 371.33 177.21 375.75 C 179.81 380.37 185.90 382.74 190.90 380.83 C 195.36 379.23 198.01 374.58 198.64 370.08 C 199.13 365.34 198.78 360.15 195.81 356.21 C 193.13 352.26 187.68 350.82 183.24 352.26 Z" fill="#9372f1" fill-rule="evenodd" opacity="1.00" stroke="#9372f1" stroke-width="0.25" data-index="4"></path>
<path d="M 235.45 344.18 C 239.93 339.88 246.38 338.23 252.42 339.60 C 254.33 344.13 252.98 349.34 253.32 354.15 C 249.64 353.94 245.54 352.88 242.24 355.13 C 239.10 357.18 235.05 359.68 235.16 363.95 C 234.58 373.14 235.22 382.36 234.54 391.55 C 229.70 392.01 224.63 392.80 219.92 391.20 C 219.08 376.51 220.00 361.74 219.65 347.02 C 219.91 344.95 219.03 342.21 221.03 340.82 C 225.40 340.28 229.80 340.89 234.15 341.28 C 234.57 342.25 235.01 343.21 235.45 344.18 Z" fill="#9372f1" opacity="1.00" stroke="#9372f1" stroke-width="0.25" data-index="5"></path>
<path d="M 316.20 344.18 C 321.22 339.44 328.51 338.95 335.05 339.31 C 341.36 339.51 347.65 342.45 351.43 347.58 C 353.07 349.89 353.14 352.87 353.74 355.55 C 349.87 358.25 345.09 357.22 340.72 356.84 C 338.62 351.31 331.67 349.06 326.49 351.52 C 323.99 352.62 324.08 356.45 326.39 357.72 C 330.16 359.88 334.72 359.64 338.86 360.62 C 344.76 361.80 351.31 364.32 353.92 370.21 C 356.81 377.31 353.70 386.30 347.02 390.11 C 337.98 395.35 325.92 395.73 317.01 390.00 C 313.80 387.89 310.82 384.79 310.30 380.83 C 309.67 377.05 312.91 372.62 317.00 373.30 C 322.38 373.03 322.94 380.13 327.57 381.42 C 331.09 382.47 335.62 383.28 338.60 380.58 C 340.66 378.92 340.38 375.31 338.00 374.09 C 330.80 369.99 321.21 372.02 314.83 366.19 C 308.12 360.59 309.85 349.37 316.20 344.18 Z" fill="#9372f1" opacity="1.00" stroke="#9372f1" stroke-width="0.25" data-index="6"></path>
<path d="M 361.53 359.56 C 359.37 353.24 356.16 347.22 355.13 340.56 C 359.72 340.45 364.37 340.15 368.93 340.81 C 369.58 341.58 370.12 342.42 370.53 343.34 C 374.76 353.32 377.17 364.00 381.96 373.74 C 385.84 362.67 389.72 351.61 393.79 340.61 C 398.22 340.57 402.68 340.22 407.09 340.85 C 407.88 342.41 406.78 344.10 406.47 345.66 C 402.22 357.54 397.76 369.34 393.43 381.19 C 390.89 387.72 388.83 394.45 385.82 400.78 C 382.50 407.87 374.85 412.77 367.01 412.66 C 364.99 412.72 362.89 411.78 361.91 409.95 C 361.33 407.37 361.57 404.70 361.59 402.08 C 366.49 399.43 371.12 396.31 375.53 392.91 C 370.56 381.93 366.02 370.75 361.53 359.56 Z" fill="#9372f1" opacity="1.00" stroke="#9372f1" stroke-width="0.25" data-index="7"></path>
</svg>